<?xml version="1.0" standalone="no"?>
<!DOCTYPE svg PUBLIC "-//W3C//DTD SVG 20010904//EN"
 "http://www.w3.org/TR/2001/REC-SVG-20010904/DTD/svg10.dtd">
<svg version="1.0" xmlns="http://www.w3.org/2000/svg"
 width="700.000000pt" height="700.000000pt" viewBox="0 0 700.000000 700.000000"
 preserveAspectRatio="xMidYMid meet">
<metadata>
Created by potrace 1.14, written by Peter Selinger 2001-2017
</metadata>
<g transform="translate(0.000000,700.000000) scale(0.100000,-0.100000)"
fill="#000000" stroke="none">
<path d="M1780 6989 c-138 -16 -293 -50 -426 -94 -123 -40 -288 -110 -343
-144 -23 -15 -23 -15 30 -26 123 -25 211 -107 261 -243 12 -32 22 -58 23 -60
1 -1 35 13 76 32 264 122 593 154 907 90 193 -40 424 -142 591 -261 122 -88
278 -243 364 -363 121 -170 217 -392 264 -610 26 -123 26 -478 -1 -600 -45
-207 -132 -411 -249 -585 -81 -119 -294 -332 -408 -408 -171 -113 -341 -187
-544 -235 -101 -24 -128 -26 -330 -27 -178 0 -236 4 -305 19 -695 151 -1187
693 -1260 1388 -13 126 -13 148 3 148 11 0 16 27 20 108 8 135 45 282 96 387
38 77 98 165 112 165 4 0 60 -45 125 -100 66 -56 129 -103 142 -107 39 -9 70
12 82 56 49 184 76 802 39 901 -18 48 -32 51 -297 51 -253 0 -411 -10 -587
-37 -105 -17 -122 -24 -135 -60 -17 -43 4 -73 130 -186 69 -61 125 -114 125
-117 0 -3 -19 -42 -41 -86 -149 -295 -244 -671 -244 -973 0 -617 302 -1214
804 -1589 610 -456 1395 -527 2067 -187 400 203 700 505 899 906 296 597 272
1291 -64 1862 -325 553 -886 917 -1518 985 -112 13 -299 12 -408 0z"/>
<path d="M5202 6452 c-61 -22 -104 -60 -135 -117 -22 -39 -22 -51 -25 -505 -2
-337 0 -477 9 -508 31 -110 123 -174 252 -174 119 1 196 46 241 142 20 43 21
61 24 475 2 237 1 453 -3 481 -20 166 -196 265 -363 206z"/>
<path d="M2674 5909 c-41 -35 -455 -422 -582 -543 l-72 -69 -56 2 c-183 7
-306 -121 -291 -305 6 -78 52 -182 94 -212 34 -24 28 18 74 -492 13 -146 25
-233 34 -247 30 -46 136 -55 188 -17 54 40 56 51 78 415 l22 343 29 45 c37 59
58 130 58 200 l1 56 230 265 c393 452 379 434 379 485 0 63 -31 96 -96 102
-46 5 -54 2 -90 -28z"/>
<path d="M4030 5936 c0 -2 11 -29 25 -60 38 -85 93 -249 120 -355 52 -209 59
-272 60 -526 0 -259 -11 -352 -62 -525 -14 -47 -28 -93 -30 -102 -5 -17 52
-18 1106 -18 l1111 0 -2 -1773 -3 -1774 -30 -49 c-19 -30 -49 -60 -79 -79
l-49 -30 -2469 -3 -2469 -2 -49 21 c-28 12 -65 39 -84 60 -69 75 -66 27 -66
1198 l0 1056 -51 22 c-85 38 -249 139 -367 228 l-112 84 0 -1222 c0 -786 4
-1245 10 -1287 56 -350 320 -611 666 -660 51 -7 867 -10 2513 -10 2684 0 2532
-3 2687 61 241 100 404 291 464 543 19 79 20 136 20 2301 0 2165 -1 2222 -20
2301 -58 242 -204 421 -432 529 -116 55 -230 75 -435 75 l-173 0 0 -303 c0
-240 -3 -315 -15 -362 -61 -232 -275 -395 -518 -395 -242 0 -461 182 -512 425
-11 52 -15 142 -15 353 l0 282 -370 0 c-203 0 -370 -2 -370 -4z"/>
<path d="M3980 3555 l0 -265 265 0 265 0 0 265 0 265 -265 0 -265 0 0 -265z"/>
<path d="M5040 3555 l0 -265 265 0 265 0 0 265 0 265 -265 0 -265 0 0 -265z"/>
<path d="M1860 2495 l0 -265 265 0 265 0 -2 263 -3 262 -262 3 -263 2 0 -265z"/>
<path d="M2920 2495 l0 -265 265 0 265 0 0 265 0 265 -265 0 -265 0 0 -265z"/>
<path d="M3980 2495 l0 -265 265 0 265 0 0 265 0 265 -265 0 -265 0 0 -265z"/>
<path d="M5040 2495 l0 -265 265 0 265 0 0 265 0 265 -265 0 -265 0 0 -265z"/>
<path d="M1860 1435 l0 -265 265 0 265 0 -2 263 -3 262 -262 3 -263 2 0 -265z"/>
<path d="M2920 1435 l0 -265 265 0 265 0 -2 263 -3 262 -262 3 -263 2 0 -265z"/>
<path d="M3980 1435 l0 -265 265 0 265 0 0 265 0 265 -265 0 -265 0 0 -265z"/>
<path d="M5040 1435 l0 -265 265 0 265 0 0 265 0 265 -265 0 -265 0 0 -265z"/>
</g>
</svg>
